<mxfile host="Electron" modified="2024-06-04T03:06:37.437Z" agent="Mozilla/5.0 (Windows NT 10.0; Win64; x64) AppleWebKit/537.36 (KHTML, like Gecko) draw.io/24.2.5 Chrome/120.0.6099.109 Electron/28.1.0 Safari/537.36" etag="Cpt7XhMGCAJaKJsN1Qv6" version="24.2.5" type="device">
  <diagram name="第 1 页" id="1bvB71k4sK3gT20Tx2zn">
    <mxGraphModel dx="1833" dy="1970" grid="1" gridSize="10" guides="1" tooltips="1" connect="1" arrows="1" fold="1" page="1" pageScale="1" pageWidth="827" pageHeight="1169" math="0" shadow="0">
      <root>
        <mxCell id="0" />
        <mxCell id="1" parent="0" />
        <mxCell id="QUu_ha0NzAe7fUuqG2fH-77" style="edgeStyle=orthogonalEdgeStyle;curved=0;rounded=1;orthogonalLoop=1;jettySize=auto;html=1;exitX=0.5;exitY=1;exitDx=0;exitDy=0;entryX=0.5;entryY=0;entryDx=0;entryDy=0;strokeColor=default;align=center;verticalAlign=middle;fontFamily=Helvetica;fontSize=11;fontColor=default;labelBackgroundColor=default;endArrow=none;endFill=0;" edge="1" parent="1" source="QUu_ha0NzAe7fUuqG2fH-1" target="QUu_ha0NzAe7fUuqG2fH-3">
          <mxGeometry relative="1" as="geometry" />
        </mxCell>
        <mxCell id="QUu_ha0NzAe7fUuqG2fH-78" style="edgeStyle=orthogonalEdgeStyle;curved=0;rounded=1;orthogonalLoop=1;jettySize=auto;html=1;exitX=0.5;exitY=1;exitDx=0;exitDy=0;entryX=0.5;entryY=0;entryDx=0;entryDy=0;strokeColor=default;align=center;verticalAlign=middle;fontFamily=Helvetica;fontSize=11;fontColor=default;labelBackgroundColor=default;endArrow=none;endFill=0;" edge="1" parent="1" source="QUu_ha0NzAe7fUuqG2fH-1" target="QUu_ha0NzAe7fUuqG2fH-2">
          <mxGeometry relative="1" as="geometry" />
        </mxCell>
        <mxCell id="QUu_ha0NzAe7fUuqG2fH-79" style="edgeStyle=orthogonalEdgeStyle;curved=0;rounded=1;orthogonalLoop=1;jettySize=auto;html=1;exitX=0.5;exitY=1;exitDx=0;exitDy=0;entryX=0.5;entryY=0;entryDx=0;entryDy=0;strokeColor=default;align=center;verticalAlign=middle;fontFamily=Helvetica;fontSize=11;fontColor=default;labelBackgroundColor=default;endArrow=none;endFill=0;" edge="1" parent="1" source="QUu_ha0NzAe7fUuqG2fH-1" target="QUu_ha0NzAe7fUuqG2fH-22">
          <mxGeometry relative="1" as="geometry" />
        </mxCell>
        <mxCell id="QUu_ha0NzAe7fUuqG2fH-1" value="awk [options] &#39;program&#39; var=value file..." style="rounded=1;whiteSpace=wrap;html=1;fillColor=#a20025;strokeColor=#6F0000;fontStyle=1;fontSize=14;fontColor=#ffffff;" vertex="1" parent="1">
          <mxGeometry x="660" y="60" width="320" height="60" as="geometry" />
        </mxCell>
        <mxCell id="QUu_ha0NzAe7fUuqG2fH-33" style="edgeStyle=orthogonalEdgeStyle;curved=0;rounded=1;orthogonalLoop=1;jettySize=auto;html=1;entryX=0.5;entryY=0;entryDx=0;entryDy=0;strokeColor=default;align=center;verticalAlign=middle;fontFamily=Helvetica;fontSize=11;fontColor=default;labelBackgroundColor=default;endArrow=none;endFill=0;" edge="1" parent="1" source="QUu_ha0NzAe7fUuqG2fH-2" target="QUu_ha0NzAe7fUuqG2fH-31">
          <mxGeometry relative="1" as="geometry" />
        </mxCell>
        <mxCell id="QUu_ha0NzAe7fUuqG2fH-34" style="edgeStyle=orthogonalEdgeStyle;curved=0;rounded=1;orthogonalLoop=1;jettySize=auto;html=1;exitX=0.5;exitY=1;exitDx=0;exitDy=0;entryX=0.5;entryY=0;entryDx=0;entryDy=0;strokeColor=default;align=center;verticalAlign=middle;fontFamily=Helvetica;fontSize=11;fontColor=default;labelBackgroundColor=default;endArrow=none;endFill=0;" edge="1" parent="1" source="QUu_ha0NzAe7fUuqG2fH-2" target="QUu_ha0NzAe7fUuqG2fH-17">
          <mxGeometry relative="1" as="geometry" />
        </mxCell>
        <mxCell id="QUu_ha0NzAe7fUuqG2fH-35" style="edgeStyle=orthogonalEdgeStyle;curved=0;rounded=1;orthogonalLoop=1;jettySize=auto;html=1;exitX=0.5;exitY=1;exitDx=0;exitDy=0;entryX=0.5;entryY=0;entryDx=0;entryDy=0;strokeColor=default;align=center;verticalAlign=middle;fontFamily=Helvetica;fontSize=11;fontColor=default;labelBackgroundColor=default;endArrow=none;endFill=0;" edge="1" parent="1" source="QUu_ha0NzAe7fUuqG2fH-2" target="QUu_ha0NzAe7fUuqG2fH-32">
          <mxGeometry relative="1" as="geometry" />
        </mxCell>
        <mxCell id="QUu_ha0NzAe7fUuqG2fH-2" value="options" style="rounded=1;whiteSpace=wrap;html=1;fillColor=#fff2cc;strokeColor=#d6b656;fontStyle=1" vertex="1" parent="1">
          <mxGeometry x="290" y="190" width="100" height="50" as="geometry" />
        </mxCell>
        <mxCell id="QUu_ha0NzAe7fUuqG2fH-14" style="edgeStyle=orthogonalEdgeStyle;curved=0;rounded=1;orthogonalLoop=1;jettySize=auto;html=1;exitX=0.5;exitY=1;exitDx=0;exitDy=0;entryX=0.5;entryY=0;entryDx=0;entryDy=0;strokeColor=default;align=center;verticalAlign=middle;fontFamily=Helvetica;fontSize=11;fontColor=default;labelBackgroundColor=default;endArrow=none;endFill=0;" edge="1" parent="1" source="QUu_ha0NzAe7fUuqG2fH-3" target="QUu_ha0NzAe7fUuqG2fH-5">
          <mxGeometry relative="1" as="geometry" />
        </mxCell>
        <mxCell id="QUu_ha0NzAe7fUuqG2fH-15" style="edgeStyle=orthogonalEdgeStyle;curved=0;rounded=1;orthogonalLoop=1;jettySize=auto;html=1;exitX=0.5;exitY=1;exitDx=0;exitDy=0;entryX=0.5;entryY=0;entryDx=0;entryDy=0;strokeColor=default;align=center;verticalAlign=middle;fontFamily=Helvetica;fontSize=11;fontColor=default;labelBackgroundColor=default;endArrow=none;endFill=0;" edge="1" parent="1" source="QUu_ha0NzAe7fUuqG2fH-3" target="QUu_ha0NzAe7fUuqG2fH-6">
          <mxGeometry relative="1" as="geometry" />
        </mxCell>
        <mxCell id="QUu_ha0NzAe7fUuqG2fH-3" value="program" style="rounded=1;whiteSpace=wrap;html=1;fillColor=#fff2cc;strokeColor=#d6b656;fontStyle=1" vertex="1" parent="1">
          <mxGeometry x="770" y="180" width="100" height="50" as="geometry" />
        </mxCell>
        <mxCell id="QUu_ha0NzAe7fUuqG2fH-11" style="edgeStyle=orthogonalEdgeStyle;rounded=1;orthogonalLoop=1;jettySize=auto;html=1;exitX=0.5;exitY=1;exitDx=0;exitDy=0;entryX=0.5;entryY=0;entryDx=0;entryDy=0;curved=0;endArrow=none;endFill=0;" edge="1" parent="1" source="QUu_ha0NzAe7fUuqG2fH-5" target="QUu_ha0NzAe7fUuqG2fH-8">
          <mxGeometry relative="1" as="geometry" />
        </mxCell>
        <mxCell id="QUu_ha0NzAe7fUuqG2fH-12" style="edgeStyle=orthogonalEdgeStyle;curved=0;rounded=1;orthogonalLoop=1;jettySize=auto;html=1;exitX=0.5;exitY=1;exitDx=0;exitDy=0;entryX=0.5;entryY=0;entryDx=0;entryDy=0;strokeColor=default;align=center;verticalAlign=middle;fontFamily=Helvetica;fontSize=11;fontColor=default;labelBackgroundColor=default;endArrow=none;endFill=0;" edge="1" parent="1" source="QUu_ha0NzAe7fUuqG2fH-5" target="QUu_ha0NzAe7fUuqG2fH-9">
          <mxGeometry relative="1" as="geometry" />
        </mxCell>
        <mxCell id="QUu_ha0NzAe7fUuqG2fH-13" style="edgeStyle=orthogonalEdgeStyle;curved=0;rounded=1;orthogonalLoop=1;jettySize=auto;html=1;exitX=0.5;exitY=1;exitDx=0;exitDy=0;entryX=0.5;entryY=0;entryDx=0;entryDy=0;strokeColor=default;align=center;verticalAlign=middle;fontFamily=Helvetica;fontSize=11;fontColor=default;labelBackgroundColor=default;endArrow=none;endFill=0;" edge="1" parent="1" source="QUu_ha0NzAe7fUuqG2fH-5" target="QUu_ha0NzAe7fUuqG2fH-10">
          <mxGeometry relative="1" as="geometry" />
        </mxCell>
        <mxCell id="QUu_ha0NzAe7fUuqG2fH-5" value="pattern" style="rounded=1;whiteSpace=wrap;html=1;fillColor=#ffe6cc;strokeColor=#d79b00;fontStyle=1" vertex="1" parent="1">
          <mxGeometry x="572" y="300" width="100" height="50" as="geometry" />
        </mxCell>
        <mxCell id="QUu_ha0NzAe7fUuqG2fH-20" style="edgeStyle=orthogonalEdgeStyle;curved=0;rounded=1;orthogonalLoop=1;jettySize=auto;html=1;exitX=0.5;exitY=1;exitDx=0;exitDy=0;strokeColor=default;align=center;verticalAlign=middle;fontFamily=Helvetica;fontSize=11;fontColor=default;labelBackgroundColor=default;endArrow=none;endFill=0;" edge="1" parent="1" source="QUu_ha0NzAe7fUuqG2fH-6" target="QUu_ha0NzAe7fUuqG2fH-18">
          <mxGeometry relative="1" as="geometry" />
        </mxCell>
        <mxCell id="QUu_ha0NzAe7fUuqG2fH-21" style="edgeStyle=orthogonalEdgeStyle;curved=0;rounded=1;orthogonalLoop=1;jettySize=auto;html=1;exitX=0.5;exitY=1;exitDx=0;exitDy=0;entryX=0.5;entryY=0;entryDx=0;entryDy=0;strokeColor=default;align=center;verticalAlign=middle;fontFamily=Helvetica;fontSize=11;fontColor=default;labelBackgroundColor=default;endArrow=none;endFill=0;" edge="1" parent="1" source="QUu_ha0NzAe7fUuqG2fH-6" target="QUu_ha0NzAe7fUuqG2fH-19">
          <mxGeometry relative="1" as="geometry" />
        </mxCell>
        <mxCell id="QUu_ha0NzAe7fUuqG2fH-6" value="action statements" style="rounded=1;whiteSpace=wrap;html=1;fillColor=#ffe6cc;strokeColor=#d79b00;fontStyle=1" vertex="1" parent="1">
          <mxGeometry x="891" y="300" width="160" height="50" as="geometry" />
        </mxCell>
        <mxCell id="QUu_ha0NzAe7fUuqG2fH-8" value="REGEXP" style="rounded=1;whiteSpace=wrap;html=1;fillColor=#f8cecc;strokeColor=#b85450;fontStyle=1" vertex="1" parent="1">
          <mxGeometry x="579" y="400" width="86" height="50" as="geometry" />
        </mxCell>
        <mxCell id="QUu_ha0NzAe7fUuqG2fH-9" value="BEGIN" style="rounded=1;whiteSpace=wrap;html=1;fillColor=#f8cecc;strokeColor=#b85450;fontStyle=1" vertex="1" parent="1">
          <mxGeometry x="474" y="400" width="86" height="50" as="geometry" />
        </mxCell>
        <mxCell id="QUu_ha0NzAe7fUuqG2fH-10" value="END" style="rounded=1;whiteSpace=wrap;html=1;fillColor=#f8cecc;strokeColor=#b85450;fontStyle=1" vertex="1" parent="1">
          <mxGeometry x="684" y="400" width="86" height="50" as="geometry" />
        </mxCell>
        <mxCell id="QUu_ha0NzAe7fUuqG2fH-17" value="-f" style="rounded=1;whiteSpace=wrap;html=1;fillColor=#ffe6cc;strokeColor=#d79b00;fontStyle=1" vertex="1" parent="1">
          <mxGeometry x="170" y="300" width="100" height="50" as="geometry" />
        </mxCell>
        <mxCell id="QUu_ha0NzAe7fUuqG2fH-40" style="edgeStyle=orthogonalEdgeStyle;curved=0;rounded=1;orthogonalLoop=1;jettySize=auto;html=1;exitX=0.5;exitY=1;exitDx=0;exitDy=0;entryX=0.5;entryY=0;entryDx=0;entryDy=0;strokeColor=default;align=center;verticalAlign=middle;fontFamily=Helvetica;fontSize=11;fontColor=default;labelBackgroundColor=default;endArrow=none;endFill=0;" edge="1" parent="1" source="QUu_ha0NzAe7fUuqG2fH-18" target="QUu_ha0NzAe7fUuqG2fH-39">
          <mxGeometry relative="1" as="geometry" />
        </mxCell>
        <mxCell id="QUu_ha0NzAe7fUuqG2fH-18" value="print" style="rounded=1;whiteSpace=wrap;html=1;fillColor=#f8cecc;strokeColor=#b85450;fontStyle=1" vertex="1" parent="1">
          <mxGeometry x="805" y="400" width="86" height="50" as="geometry" />
        </mxCell>
        <mxCell id="QUu_ha0NzAe7fUuqG2fH-42" style="edgeStyle=orthogonalEdgeStyle;curved=0;rounded=1;orthogonalLoop=1;jettySize=auto;html=1;exitX=0.5;exitY=1;exitDx=0;exitDy=0;entryX=0.5;entryY=0;entryDx=0;entryDy=0;strokeColor=default;align=center;verticalAlign=middle;fontFamily=Helvetica;fontSize=11;fontColor=default;labelBackgroundColor=default;endArrow=none;endFill=0;" edge="1" parent="1" source="QUu_ha0NzAe7fUuqG2fH-19" target="QUu_ha0NzAe7fUuqG2fH-41">
          <mxGeometry relative="1" as="geometry" />
        </mxCell>
        <mxCell id="QUu_ha0NzAe7fUuqG2fH-19" value="printf" style="rounded=1;whiteSpace=wrap;html=1;fillColor=#f8cecc;strokeColor=#b85450;fontStyle=1" vertex="1" parent="1">
          <mxGeometry x="1041.5" y="400" width="86" height="50" as="geometry" />
        </mxCell>
        <mxCell id="QUu_ha0NzAe7fUuqG2fH-27" style="edgeStyle=orthogonalEdgeStyle;curved=0;rounded=1;orthogonalLoop=1;jettySize=auto;html=1;exitX=0.5;exitY=1;exitDx=0;exitDy=0;entryX=0.5;entryY=0;entryDx=0;entryDy=0;strokeColor=default;align=center;verticalAlign=middle;fontFamily=Helvetica;fontSize=11;fontColor=default;labelBackgroundColor=default;endArrow=none;endFill=0;" edge="1" parent="1" source="QUu_ha0NzAe7fUuqG2fH-22" target="QUu_ha0NzAe7fUuqG2fH-24">
          <mxGeometry relative="1" as="geometry" />
        </mxCell>
        <mxCell id="QUu_ha0NzAe7fUuqG2fH-28" style="edgeStyle=orthogonalEdgeStyle;curved=0;rounded=1;orthogonalLoop=1;jettySize=auto;html=1;exitX=0.5;exitY=1;exitDx=0;exitDy=0;entryX=0.5;entryY=0;entryDx=0;entryDy=0;strokeColor=default;align=center;verticalAlign=middle;fontFamily=Helvetica;fontSize=11;fontColor=default;labelBackgroundColor=default;endArrow=none;endFill=0;" edge="1" parent="1" source="QUu_ha0NzAe7fUuqG2fH-22" target="QUu_ha0NzAe7fUuqG2fH-25">
          <mxGeometry relative="1" as="geometry" />
        </mxCell>
        <mxCell id="QUu_ha0NzAe7fUuqG2fH-29" style="edgeStyle=orthogonalEdgeStyle;curved=0;rounded=1;orthogonalLoop=1;jettySize=auto;html=1;exitX=0.5;exitY=1;exitDx=0;exitDy=0;entryX=0.5;entryY=0;entryDx=0;entryDy=0;strokeColor=default;align=center;verticalAlign=middle;fontFamily=Helvetica;fontSize=11;fontColor=default;labelBackgroundColor=default;endArrow=none;endFill=0;" edge="1" parent="1" source="QUu_ha0NzAe7fUuqG2fH-22" target="QUu_ha0NzAe7fUuqG2fH-23">
          <mxGeometry relative="1" as="geometry" />
        </mxCell>
        <mxCell id="QUu_ha0NzAe7fUuqG2fH-30" style="edgeStyle=orthogonalEdgeStyle;curved=0;rounded=1;orthogonalLoop=1;jettySize=auto;html=1;exitX=0.5;exitY=1;exitDx=0;exitDy=0;entryX=0.5;entryY=0;entryDx=0;entryDy=0;strokeColor=default;align=center;verticalAlign=middle;fontFamily=Helvetica;fontSize=11;fontColor=default;labelBackgroundColor=default;endArrow=none;endFill=0;" edge="1" parent="1" source="QUu_ha0NzAe7fUuqG2fH-22" target="QUu_ha0NzAe7fUuqG2fH-26">
          <mxGeometry relative="1" as="geometry" />
        </mxCell>
        <mxCell id="QUu_ha0NzAe7fUuqG2fH-22" value="var" style="rounded=1;whiteSpace=wrap;html=1;fillColor=#fff2cc;strokeColor=#d6b656;fontStyle=1" vertex="1" parent="1">
          <mxGeometry x="1270" y="190" width="100" height="50" as="geometry" />
        </mxCell>
        <mxCell id="QUu_ha0NzAe7fUuqG2fH-23" value="FS" style="rounded=1;whiteSpace=wrap;html=1;fillColor=#ffe6cc;strokeColor=#d79b00;fontStyle=1" vertex="1" parent="1">
          <mxGeometry x="1150" y="300" width="60" height="50" as="geometry" />
        </mxCell>
        <mxCell id="QUu_ha0NzAe7fUuqG2fH-24" value="RS" style="rounded=1;whiteSpace=wrap;html=1;fillColor=#ffe6cc;strokeColor=#d79b00;fontStyle=1" vertex="1" parent="1">
          <mxGeometry x="1240" y="300" width="60" height="50" as="geometry" />
        </mxCell>
        <mxCell id="QUu_ha0NzAe7fUuqG2fH-25" value="NF" style="rounded=1;whiteSpace=wrap;html=1;fillColor=#ffe6cc;strokeColor=#d79b00;fontStyle=1" vertex="1" parent="1">
          <mxGeometry x="1340" y="300" width="60" height="50" as="geometry" />
        </mxCell>
        <mxCell id="QUu_ha0NzAe7fUuqG2fH-26" value="NR" style="rounded=1;whiteSpace=wrap;html=1;fillColor=#ffe6cc;strokeColor=#d79b00;fontStyle=1" vertex="1" parent="1">
          <mxGeometry x="1430" y="300" width="60" height="50" as="geometry" />
        </mxCell>
        <mxCell id="QUu_ha0NzAe7fUuqG2fH-37" style="edgeStyle=orthogonalEdgeStyle;curved=0;rounded=1;orthogonalLoop=1;jettySize=auto;html=1;exitX=0.5;exitY=1;exitDx=0;exitDy=0;entryX=0.5;entryY=0;entryDx=0;entryDy=0;strokeColor=#b85450;align=center;verticalAlign=middle;fontFamily=Helvetica;fontSize=11;fontColor=default;labelBackgroundColor=default;endArrow=none;endFill=0;fillColor=#f8cecc;" edge="1" parent="1" source="QUu_ha0NzAe7fUuqG2fH-31" target="QUu_ha0NzAe7fUuqG2fH-36">
          <mxGeometry relative="1" as="geometry" />
        </mxCell>
        <mxCell id="QUu_ha0NzAe7fUuqG2fH-31" value="-F" style="rounded=1;whiteSpace=wrap;html=1;fillColor=#ffe6cc;strokeColor=#d79b00;fontStyle=1" vertex="1" parent="1">
          <mxGeometry x="290" y="300" width="100" height="50" as="geometry" />
        </mxCell>
        <mxCell id="QUu_ha0NzAe7fUuqG2fH-32" value="-v" style="rounded=1;whiteSpace=wrap;html=1;fillColor=#ffe6cc;strokeColor=#d79b00;fontStyle=1" vertex="1" parent="1">
          <mxGeometry x="410" y="300" width="100" height="50" as="geometry" />
        </mxCell>
        <mxCell id="QUu_ha0NzAe7fUuqG2fH-36" value="-F&quot; +|%&quot;" style="rounded=1;whiteSpace=wrap;html=1;fillColor=#f8cecc;strokeColor=#b85450;fontStyle=1" vertex="1" parent="1">
          <mxGeometry x="290" y="400" width="100" height="50" as="geometry" />
        </mxCell>
        <mxCell id="QUu_ha0NzAe7fUuqG2fH-39" value="print item1, item2,..." style="rounded=1;whiteSpace=wrap;html=1;fillColor=#e1d5e7;strokeColor=#9673a6;fontStyle=1" vertex="1" parent="1">
          <mxGeometry x="750" y="490" width="196" height="50" as="geometry" />
        </mxCell>
        <mxCell id="QUu_ha0NzAe7fUuqG2fH-41" value="printf &quot;FORMAT&quot; ,item1, item2..." style="rounded=1;whiteSpace=wrap;html=1;fillColor=#e1d5e7;strokeColor=#9673a6;fontStyle=1" vertex="1" parent="1">
          <mxGeometry x="979" y="490" width="211" height="50" as="geometry" />
        </mxCell>
        <mxCell id="QUu_ha0NzAe7fUuqG2fH-72" style="edgeStyle=orthogonalEdgeStyle;curved=0;rounded=1;orthogonalLoop=1;jettySize=auto;html=1;exitX=0.5;exitY=1;exitDx=0;exitDy=0;entryX=0.5;entryY=0;entryDx=0;entryDy=0;strokeColor=default;align=center;verticalAlign=middle;fontFamily=Helvetica;fontSize=11;fontColor=default;labelBackgroundColor=default;endArrow=none;endFill=0;" edge="1" parent="1" source="QUu_ha0NzAe7fUuqG2fH-43" target="QUu_ha0NzAe7fUuqG2fH-47">
          <mxGeometry relative="1" as="geometry" />
        </mxCell>
        <mxCell id="QUu_ha0NzAe7fUuqG2fH-73" style="edgeStyle=orthogonalEdgeStyle;curved=0;rounded=1;orthogonalLoop=1;jettySize=auto;html=1;exitX=0.5;exitY=1;exitDx=0;exitDy=0;entryX=0.5;entryY=0;entryDx=0;entryDy=0;strokeColor=default;align=center;verticalAlign=middle;fontFamily=Helvetica;fontSize=11;fontColor=default;labelBackgroundColor=default;endArrow=none;endFill=0;" edge="1" parent="1" source="QUu_ha0NzAe7fUuqG2fH-43" target="QUu_ha0NzAe7fUuqG2fH-44">
          <mxGeometry relative="1" as="geometry" />
        </mxCell>
        <mxCell id="QUu_ha0NzAe7fUuqG2fH-74" style="edgeStyle=orthogonalEdgeStyle;curved=0;rounded=1;orthogonalLoop=1;jettySize=auto;html=1;exitX=0.5;exitY=1;exitDx=0;exitDy=0;entryX=0.5;entryY=0;entryDx=0;entryDy=0;strokeColor=default;align=center;verticalAlign=middle;fontFamily=Helvetica;fontSize=11;fontColor=default;labelBackgroundColor=default;endArrow=none;endFill=0;" edge="1" parent="1" source="QUu_ha0NzAe7fUuqG2fH-43" target="QUu_ha0NzAe7fUuqG2fH-71">
          <mxGeometry relative="1" as="geometry" />
        </mxCell>
        <mxCell id="QUu_ha0NzAe7fUuqG2fH-43" value="AWK脚本" style="rounded=1;whiteSpace=wrap;html=1;fillColor=#0050ef;strokeColor=#001DBC;fontStyle=1;fontSize=14;fontColor=#ffffff;" vertex="1" parent="1">
          <mxGeometry x="738.5" y="650" width="173" height="60" as="geometry" />
        </mxCell>
        <mxCell id="QUu_ha0NzAe7fUuqG2fH-46" style="edgeStyle=orthogonalEdgeStyle;curved=0;rounded=1;orthogonalLoop=1;jettySize=auto;html=1;exitX=0.5;exitY=1;exitDx=0;exitDy=0;entryX=0.5;entryY=0;entryDx=0;entryDy=0;strokeColor=default;align=center;verticalAlign=middle;fontFamily=Helvetica;fontSize=11;fontColor=default;labelBackgroundColor=default;endArrow=none;endFill=0;" edge="1" parent="1" source="QUu_ha0NzAe7fUuqG2fH-44" target="QUu_ha0NzAe7fUuqG2fH-45">
          <mxGeometry relative="1" as="geometry" />
        </mxCell>
        <mxCell id="QUu_ha0NzAe7fUuqG2fH-44" value="通用格式" style="rounded=1;whiteSpace=wrap;html=1;fillColor=#dae8fc;strokeColor=#6c8ebf;fontStyle=1;fontSize=14;" vertex="1" parent="1">
          <mxGeometry x="150.5" y="790" width="173" height="60" as="geometry" />
        </mxCell>
        <mxCell id="QUu_ha0NzAe7fUuqG2fH-45" value="#!/bin/awk -f&lt;div&gt;&lt;br&gt;&lt;/div&gt;&lt;div&gt;&lt;font color=&quot;#00994d&quot;&gt;# 通常放自定义变量和内置变量&lt;/font&gt;&lt;/div&gt;&lt;div&gt;BEGIN {&lt;/div&gt;&lt;div&gt;&lt;span style=&quot;white-space: pre;&quot;&gt;&#x9;&lt;/span&gt;FS=&quot;&quot;&lt;br&gt;&lt;/div&gt;&lt;div&gt;}&lt;/div&gt;&lt;div&gt;&lt;span style=&quot;background-color: initial;&quot;&gt;&lt;font color=&quot;#00994d&quot;&gt;# 脚本逻辑主体&lt;/font&gt;&lt;/span&gt;&lt;/div&gt;&lt;div&gt;&lt;span style=&quot;background-color: initial;&quot;&gt;parrtern {&lt;/span&gt;&lt;br&gt;&lt;/div&gt;&lt;div&gt;&lt;span style=&quot;white-space: pre;&quot;&gt;&#x9;&lt;/span&gt;&lt;font color=&quot;#00994d&quot;&gt;# statement...;&lt;/font&gt;&lt;br&gt;&lt;/div&gt;&lt;div&gt;}&lt;/div&gt;&lt;div&gt;&lt;font color=&quot;#00994d&quot;&gt;# 输出结果&lt;/font&gt;&lt;/div&gt;&lt;div&gt;END {&lt;br&gt;&lt;span style=&quot;white-space: pre;&quot;&gt;&#x9;&lt;/span&gt;print XXX&lt;br&gt;&lt;/div&gt;&lt;div&gt;}&lt;/div&gt;" style="rounded=1;whiteSpace=wrap;html=1;fontStyle=1;fontSize=14;align=left;spacingLeft=20;fillColor=#dae8fc;strokeColor=#6c8ebf;" vertex="1" parent="1">
          <mxGeometry x="110" y="890" width="253" height="330" as="geometry" />
        </mxCell>
        <mxCell id="QUu_ha0NzAe7fUuqG2fH-60" style="edgeStyle=orthogonalEdgeStyle;curved=0;rounded=1;orthogonalLoop=1;jettySize=auto;html=1;exitX=0.5;exitY=1;exitDx=0;exitDy=0;entryX=0.5;entryY=0;entryDx=0;entryDy=0;strokeColor=default;align=center;verticalAlign=middle;fontFamily=Helvetica;fontSize=11;fontColor=default;labelBackgroundColor=default;endArrow=none;endFill=0;" edge="1" parent="1" source="QUu_ha0NzAe7fUuqG2fH-47" target="QUu_ha0NzAe7fUuqG2fH-49">
          <mxGeometry relative="1" as="geometry" />
        </mxCell>
        <mxCell id="QUu_ha0NzAe7fUuqG2fH-61" style="edgeStyle=orthogonalEdgeStyle;curved=0;rounded=1;orthogonalLoop=1;jettySize=auto;html=1;exitX=0.5;exitY=1;exitDx=0;exitDy=0;entryX=0.5;entryY=0;entryDx=0;entryDy=0;strokeColor=default;align=center;verticalAlign=middle;fontFamily=Helvetica;fontSize=11;fontColor=default;labelBackgroundColor=default;endArrow=none;endFill=0;" edge="1" parent="1" source="QUu_ha0NzAe7fUuqG2fH-47" target="QUu_ha0NzAe7fUuqG2fH-54">
          <mxGeometry relative="1" as="geometry" />
        </mxCell>
        <mxCell id="QUu_ha0NzAe7fUuqG2fH-70" style="edgeStyle=orthogonalEdgeStyle;curved=0;rounded=1;orthogonalLoop=1;jettySize=auto;html=1;exitX=0.5;exitY=1;exitDx=0;exitDy=0;entryX=0.5;entryY=0;entryDx=0;entryDy=0;strokeColor=default;align=center;verticalAlign=middle;fontFamily=Helvetica;fontSize=11;fontColor=default;labelBackgroundColor=default;endArrow=none;endFill=0;" edge="1" parent="1" source="QUu_ha0NzAe7fUuqG2fH-47" target="QUu_ha0NzAe7fUuqG2fH-62">
          <mxGeometry relative="1" as="geometry" />
        </mxCell>
        <mxCell id="QUu_ha0NzAe7fUuqG2fH-47" value="语法" style="rounded=1;whiteSpace=wrap;html=1;fillColor=#dae8fc;strokeColor=#6c8ebf;fontStyle=1;fontSize=14;" vertex="1" parent="1">
          <mxGeometry x="750" y="790" width="150" height="60" as="geometry" />
        </mxCell>
        <mxCell id="QUu_ha0NzAe7fUuqG2fH-52" style="edgeStyle=orthogonalEdgeStyle;curved=0;rounded=1;orthogonalLoop=1;jettySize=auto;html=1;exitX=0.5;exitY=1;exitDx=0;exitDy=0;entryX=0.5;entryY=0;entryDx=0;entryDy=0;strokeColor=default;align=center;verticalAlign=middle;fontFamily=Helvetica;fontSize=11;fontColor=default;labelBackgroundColor=default;endArrow=none;endFill=0;" edge="1" parent="1" source="QUu_ha0NzAe7fUuqG2fH-49" target="QUu_ha0NzAe7fUuqG2fH-50">
          <mxGeometry relative="1" as="geometry" />
        </mxCell>
        <mxCell id="QUu_ha0NzAe7fUuqG2fH-53" style="edgeStyle=orthogonalEdgeStyle;curved=0;rounded=1;orthogonalLoop=1;jettySize=auto;html=1;exitX=0.5;exitY=1;exitDx=0;exitDy=0;entryX=0.5;entryY=0;entryDx=0;entryDy=0;strokeColor=default;align=center;verticalAlign=middle;fontFamily=Helvetica;fontSize=11;fontColor=default;labelBackgroundColor=default;endArrow=none;endFill=0;" edge="1" parent="1" source="QUu_ha0NzAe7fUuqG2fH-49" target="QUu_ha0NzAe7fUuqG2fH-51">
          <mxGeometry relative="1" as="geometry" />
        </mxCell>
        <mxCell id="QUu_ha0NzAe7fUuqG2fH-49" value="分支" style="rounded=1;whiteSpace=wrap;html=1;fillColor=#dae8fc;strokeColor=#6c8ebf;fontStyle=1;fontSize=14;" vertex="1" parent="1">
          <mxGeometry x="496" y="890" width="110" height="60" as="geometry" />
        </mxCell>
        <mxCell id="QUu_ha0NzAe7fUuqG2fH-50" value="if-else" style="rounded=1;whiteSpace=wrap;html=1;fillColor=#dae8fc;strokeColor=#6c8ebf;fontStyle=1;fontSize=14;" vertex="1" parent="1">
          <mxGeometry x="416" y="1000" width="110" height="60" as="geometry" />
        </mxCell>
        <mxCell id="QUu_ha0NzAe7fUuqG2fH-51" value="switch case" style="rounded=1;whiteSpace=wrap;html=1;fillColor=#dae8fc;strokeColor=#6c8ebf;fontStyle=1;fontSize=14;" vertex="1" parent="1">
          <mxGeometry x="570" y="1000" width="110" height="60" as="geometry" />
        </mxCell>
        <mxCell id="QUu_ha0NzAe7fUuqG2fH-58" style="edgeStyle=orthogonalEdgeStyle;curved=0;rounded=1;orthogonalLoop=1;jettySize=auto;html=1;exitX=0.5;exitY=1;exitDx=0;exitDy=0;entryX=0.5;entryY=0;entryDx=0;entryDy=0;strokeColor=default;align=center;verticalAlign=middle;fontFamily=Helvetica;fontSize=11;fontColor=default;labelBackgroundColor=default;endArrow=none;endFill=0;" edge="1" parent="1" source="QUu_ha0NzAe7fUuqG2fH-54" target="QUu_ha0NzAe7fUuqG2fH-55">
          <mxGeometry relative="1" as="geometry" />
        </mxCell>
        <mxCell id="QUu_ha0NzAe7fUuqG2fH-59" style="edgeStyle=orthogonalEdgeStyle;curved=0;rounded=1;orthogonalLoop=1;jettySize=auto;html=1;exitX=0.5;exitY=1;exitDx=0;exitDy=0;entryX=0.5;entryY=0;entryDx=0;entryDy=0;strokeColor=default;align=center;verticalAlign=middle;fontFamily=Helvetica;fontSize=11;fontColor=default;labelBackgroundColor=default;endArrow=none;endFill=0;" edge="1" parent="1" source="QUu_ha0NzAe7fUuqG2fH-54" target="QUu_ha0NzAe7fUuqG2fH-57">
          <mxGeometry relative="1" as="geometry" />
        </mxCell>
        <mxCell id="QUu_ha0NzAe7fUuqG2fH-54" value="循环" style="rounded=1;whiteSpace=wrap;html=1;fillColor=#dae8fc;strokeColor=#6c8ebf;fontStyle=1;fontSize=14;" vertex="1" parent="1">
          <mxGeometry x="770" y="890" width="110" height="60" as="geometry" />
        </mxCell>
        <mxCell id="QUu_ha0NzAe7fUuqG2fH-55" value="while" style="rounded=1;whiteSpace=wrap;html=1;fillColor=#dae8fc;strokeColor=#6c8ebf;fontStyle=1;fontSize=14;" vertex="1" parent="1">
          <mxGeometry x="710" y="1000" width="100" height="60" as="geometry" />
        </mxCell>
        <mxCell id="QUu_ha0NzAe7fUuqG2fH-57" value="for" style="rounded=1;whiteSpace=wrap;html=1;fillColor=#dae8fc;strokeColor=#6c8ebf;fontStyle=1;fontSize=14;" vertex="1" parent="1">
          <mxGeometry x="850" y="1000" width="90" height="60" as="geometry" />
        </mxCell>
        <mxCell id="QUu_ha0NzAe7fUuqG2fH-66" style="edgeStyle=orthogonalEdgeStyle;curved=0;rounded=1;orthogonalLoop=1;jettySize=auto;html=1;exitX=0.5;exitY=1;exitDx=0;exitDy=0;entryX=0.5;entryY=0;entryDx=0;entryDy=0;strokeColor=default;align=center;verticalAlign=middle;fontFamily=Helvetica;fontSize=11;fontColor=default;labelBackgroundColor=default;endArrow=none;endFill=0;" edge="1" parent="1" source="QUu_ha0NzAe7fUuqG2fH-62" target="QUu_ha0NzAe7fUuqG2fH-64">
          <mxGeometry relative="1" as="geometry" />
        </mxCell>
        <mxCell id="QUu_ha0NzAe7fUuqG2fH-67" style="edgeStyle=orthogonalEdgeStyle;curved=0;rounded=1;orthogonalLoop=1;jettySize=auto;html=1;exitX=0.5;exitY=1;exitDx=0;exitDy=0;entryX=0.5;entryY=0;entryDx=0;entryDy=0;strokeColor=default;align=center;verticalAlign=middle;fontFamily=Helvetica;fontSize=11;fontColor=default;labelBackgroundColor=default;endArrow=none;endFill=0;" edge="1" parent="1" source="QUu_ha0NzAe7fUuqG2fH-62" target="QUu_ha0NzAe7fUuqG2fH-63">
          <mxGeometry relative="1" as="geometry" />
        </mxCell>
        <mxCell id="QUu_ha0NzAe7fUuqG2fH-69" style="edgeStyle=orthogonalEdgeStyle;curved=0;rounded=1;orthogonalLoop=1;jettySize=auto;html=1;exitX=0.5;exitY=1;exitDx=0;exitDy=0;entryX=0.5;entryY=0;entryDx=0;entryDy=0;strokeColor=default;align=center;verticalAlign=middle;fontFamily=Helvetica;fontSize=11;fontColor=default;labelBackgroundColor=default;endArrow=none;endFill=0;" edge="1" parent="1" source="QUu_ha0NzAe7fUuqG2fH-62" target="QUu_ha0NzAe7fUuqG2fH-65">
          <mxGeometry relative="1" as="geometry" />
        </mxCell>
        <mxCell id="QUu_ha0NzAe7fUuqG2fH-62" value="流程控制" style="rounded=1;whiteSpace=wrap;html=1;fillColor=#dae8fc;strokeColor=#6c8ebf;fontStyle=1;fontSize=14;" vertex="1" parent="1">
          <mxGeometry x="1085" y="890" width="110" height="60" as="geometry" />
        </mxCell>
        <mxCell id="QUu_ha0NzAe7fUuqG2fH-63" value="continue" style="rounded=1;whiteSpace=wrap;html=1;fillColor=#dae8fc;strokeColor=#6c8ebf;fontStyle=1;fontSize=14;" vertex="1" parent="1">
          <mxGeometry x="980" y="1000" width="90" height="60" as="geometry" />
        </mxCell>
        <mxCell id="QUu_ha0NzAe7fUuqG2fH-64" value="break" style="rounded=1;whiteSpace=wrap;html=1;fillColor=#dae8fc;strokeColor=#6c8ebf;fontStyle=1;fontSize=14;" vertex="1" parent="1">
          <mxGeometry x="1100" y="1000" width="80" height="60" as="geometry" />
        </mxCell>
        <mxCell id="QUu_ha0NzAe7fUuqG2fH-65" value="next" style="rounded=1;whiteSpace=wrap;html=1;fillColor=#dae8fc;strokeColor=#6c8ebf;fontStyle=1;fontSize=14;" vertex="1" parent="1">
          <mxGeometry x="1210" y="1000" width="70" height="60" as="geometry" />
        </mxCell>
        <mxCell id="QUu_ha0NzAe7fUuqG2fH-76" style="edgeStyle=orthogonalEdgeStyle;curved=0;rounded=1;orthogonalLoop=1;jettySize=auto;html=1;exitX=0.5;exitY=1;exitDx=0;exitDy=0;entryX=0.5;entryY=0;entryDx=0;entryDy=0;strokeColor=default;align=center;verticalAlign=middle;fontFamily=Helvetica;fontSize=11;fontColor=default;labelBackgroundColor=default;endArrow=none;endFill=0;" edge="1" parent="1" source="QUu_ha0NzAe7fUuqG2fH-71" target="QUu_ha0NzAe7fUuqG2fH-75">
          <mxGeometry relative="1" as="geometry" />
        </mxCell>
        <mxCell id="QUu_ha0NzAe7fUuqG2fH-71" value="数组与函数" style="rounded=1;whiteSpace=wrap;html=1;fillColor=#dae8fc;strokeColor=#6c8ebf;fontStyle=1;fontSize=14;" vertex="1" parent="1">
          <mxGeometry x="1320" y="790" width="150" height="60" as="geometry" />
        </mxCell>
        <mxCell id="QUu_ha0NzAe7fUuqG2fH-75" value="和shell不同，这里调用函数加()" style="rounded=1;whiteSpace=wrap;html=1;fillColor=#dae8fc;strokeColor=#6c8ebf;fontStyle=1;fontSize=14;" vertex="1" parent="1">
          <mxGeometry x="1260" y="890" width="270" height="60" as="geometry" />
        </mxCell>
      </root>
    </mxGraphModel>
  </diagram>
</mxfile>
